<svg xmlns="http://www.w3.org/2000/svg" viewBox="0 0 100 162.42"><defs><style>.cls-1{fill:#9f2025;}.cls-1,.cls-10,.cls-11,.cls-2,.cls-3,.cls-4,.cls-5,.cls-6,.cls-7,.cls-8,.cls-9{fill-rule:evenodd;}.cls-2{fill:#f5b67e;}.cls-3{fill:#841b21;}.cls-4{fill:#f6c085;}.cls-5{fill:#f8c997;}.cls-6{fill:#d6825b;}.cls-7{fill:#59341a;}.cls-8{fill:#402412;}.cls-9{fill:#5d331a;}.cls-10{fill:#3e3b3a;}.cls-11{fill:#e5b17d;}</style></defs><title>Recurso 3</title><g id="Capa_2" data-name="Capa 2"><g id="OBJECTS"><path class="cls-1" d="M32.42,138c-.89-.67-20.72-10-20.72-10C2.88,130.93.9,150.75,0,162.42H21.09Z"/><path class="cls-1" d="M67.56,138c.89-.67,20.71-10,20.71-10,8.83,2.92,10.81,22.74,11.71,34.41H78.89Z"/><path class="cls-2" d="M50,106.29H40.68v5.88c0,3.65-.6,2.89-4,4.79a28.76,28.76,0,0,1-4.29,3c4.13,13.32,7.12,30.44,15.21,42.45h4.8c8.08-12,11.07-29.13,15.21-42.45a28.76,28.76,0,0,1-4.29-3c-3.41-1.9-4-1.14-4-4.79v-5.88Z"/><path class="cls-3" d="M44.22,130.08C36,127.07,35,118.29,36.66,117c-5,2.27-23,9.35-25.07,11.11,1.64,3.59,4.14,18.4,6.29,34.31H82.1c2.15-15.91,4.65-30.72,6.29-34.31-2-1.76-20.12-8.84-25.08-11.11,1.66,1.29.64,10.07-7.55,13.08h0L50,139.71l-5.77-9.63Z"/><path class="cls-4" d="M74.89,63.78c-1.33,6.93,3.16,12.71,10,14s13.52-2.51,14.85-9.45a12.55,12.55,0,0,0-10-14.8A12.87,12.87,0,0,0,74.89,63.78Z"/><path class="cls-4" d="M27,63.78c1.33,6.93-3.16,12.71-10,14S3.4,75.22,2.07,68.28a12.55,12.55,0,0,1,10-14.8A12.87,12.87,0,0,1,27,63.78Z"/><path class="cls-5" d="M85.21,19.77C78.5,10.66,68,4.67,56.93,4.23l-.58,0,0-.44L50.89,4l-5.47-.22v.44l-.57,0c-11.11.44-21.57,6.43-28.28,15.54S9,40.38,9.5,51.38c1.36,28.27,3.89,59.94,41.51,60.25S90.93,79.45,92.28,51.38C92.81,40.38,91.92,28.89,85.21,19.77Z"/><path class="cls-6" d="M62,87.94c-2,11-19.78,11-21.75,0C45.52,89.16,55.45,89.17,62,87.94Z"/><path class="cls-7" d="M11.58,59.94c.5-10.42.63-29.27,9.75-29.27,6.76,0,8.6,1.56,29.12,1.56,18.17,0,23.44-2.07,30.24-2.07,7.29,0,9.09,9.82,9.23,23.43,0,2.8.23,5.61.39,8.41.09,1.64.21,3.28.29,4.93,0,.67.21,2.45,1.07,2.28s1.08-3.8,1.18-4.57a129.39,129.39,0,0,0,.87-16.46c0-10.1,2.9-29.53-15.21-41.64-11.13-7.45-34.16-8.19-47-4-8.92,2.94-17.48,10.59-20.67,19.5C7.37,31.86,7.46,39.51,8.61,58.9c.13,2.1.37,4.21.66,6.29a41.69,41.69,0,0,0,.7,4.17c.73,3,1.75.85,1.72-1C11.64,65.55,11.44,62.76,11.58,59.94Z"/><path class="cls-8" d="M33.64,88.44a27.32,27.32,0,0,1-4.77.5A17.24,17.24,0,0,1,15.33,83a12,12,0,0,1-2.07-5.31c-.18-1.43-1-5-1.08-6.25-.7-7.08-2.2-2-2.27,3.5a17.82,17.82,0,0,0,.65,4A100.13,100.13,0,0,0,9.89,89.6c1.59,20.7,28.23,26.14,41.33,28.06,6.39-.94,24.07-5.21,28.2-8.06C90,102.29,93.4,94,91.87,79a17.82,17.82,0,0,0,.65-4c-.07-5.48-1.57-10.58-2.27-3.5-.12,1.23-.9,4.82-1.08,6.25A11.91,11.91,0,0,1,87.1,83a17.21,17.21,0,0,1-13.54,5.92,27.32,27.32,0,0,1-4.77-.5,7.84,7.84,0,0,1,1.12,4c0,5.26-5.54,9.71-13.16,11.19a6.62,6.62,0,0,1-1.5-.76A14.43,14.43,0,0,1,51.42,99a14.58,14.58,0,0,1-3.83,3.86,6.38,6.38,0,0,1-1.65.8c-7.75-1.42-13.42-5.91-13.42-11.23A7.94,7.94,0,0,1,33.64,88.44Z"/><path class="cls-9" d="M51.22,79.72C47,76.27,36.7,84.93,34.52,85.87,28,88.64,24,83.09,24,83.09A18.15,18.15,0,0,0,28,90.52c5.56,6.25,17.28,4.59,23.25-.77,6,5.36,17.68,7,23.24.77a18,18,0,0,0,3.94-7.43s-4,5.55-10.49,2.78C65.73,84.93,55.47,76.27,51.22,79.72Z"/><path class="cls-10" d="M29.53,73a3.22,3.22,0,1,0-3.22-3.22A3.22,3.22,0,0,0,29.53,73Z"/><path class="cls-10" d="M72.26,73a3.22,3.22,0,1,0-3.21-3.22A3.22,3.22,0,0,0,72.26,73Z"/><path class="cls-7" d="M19.29,59.92c-1.07-1.77,4.49-2.7,10.14-2.74,9.48-.08,14.63,4.47,10.07,4.34C36.09,61.43,19.6,60.44,19.29,59.92Z"/><path class="cls-7" d="M82.51,59.66c1-1.78-4.53-2.63-10.18-2.61-9.48.05-14.57,4.67-10,4.48C65.72,61.39,82.2,60.19,82.51,59.66Z"/><path class="cls-11" d="M46.74,77.67s0,0,0-.09a.51.51,0,0,1,.21-.38,56.37,56.37,0,0,0,4.23-15c1.08.07-1.07,11.49-2,14.22a19.9,19.9,0,0,1,3.3-.26c3.18,0,5.76.64,5.76,1.42S55.66,79,52.48,79,46.91,78.41,46.74,77.67Z"/></g></g></svg>