<svg xmlns="http://www.w3.org/2000/svg" viewBox="0 0 100 159.64"><defs><style>.cls-1{fill:#913e22;}.cls-1,.cls-10,.cls-11,.cls-12,.cls-2,.cls-3,.cls-4,.cls-5,.cls-6,.cls-7,.cls-8,.cls-9{fill-rule:evenodd;}.cls-2{fill:#a9bcc7;}.cls-3{fill:#98c0d4;}.cls-4{fill:#f5b67e;}.cls-5{fill:#b5ccd8;}.cls-6{fill:#f6c085;}.cls-7{fill:#f8c997;}.cls-8{fill:#abc3cf;}.cls-9{fill:#c9e1ed;}.cls-10{fill:#3e3b3a;}.cls-11{fill:#d6825b;}.cls-12{fill:#e5b17d;}</style></defs><title>Recurso 6</title><g id="Capa_2" data-name="Capa 2"><g id="OBJECTS"><path class="cls-1" d="M10,55.26c2.19,21.89-.12,64.14,16.87,75.58,25.88,17.41,18.85,18.67,43.11.8s21.08-47,20.94-79Z"/><path class="cls-1" d="M71.26,10.73c50.85-10,18.16,105.05,12.61,129.19-2.41,10.48-5.94,7.81-15.11-7.41,0,0,17.63-43.27,18.84-67.82s-7.44-33-12.72-42.26S71.26,10.73,71.26,10.73Z"/><path class="cls-1" d="M76.57,12c1.59,13.92-2.12,15.61-13.33,23S47.18,42.41,49,41.5,59.45,25.59,59.45,25.59,47.79,35,36,39.68s-16.06,2.88-16.06,2.88S30.36,28.92,29,30,17.64,37.56,16.27,40.59,12,57.24,13.67,72.24c1.11,10,21.32,41.47,21.68,56.24.18,7.45-10.79,18.42-14,14.69C8.22,128.06,6,37.32,6.58,33,8.17,22,14.39,13.94,21.36,8.39,36.26-3.49,74.86-3.15,76.57,12Z"/><path class="cls-2" d="M67.74,135.35l20.05-15.14c8.78,2.9,11.32,27.81,12.21,39.43H79Z"/><path class="cls-3" d="M34.41,122.44c.2-1.6,1.39-12.35,1.39-12.35l28.5-.2-.38,8.86Z"/><path class="cls-4" d="M49.75,103.78H40.49v5.84c0,3.64-.6,2.88-4,4.77,0,0-3.27,2.69-4.27,3,4.12,13.26,7.09,30.29,15.14,42.25h4.78c8-12,11-29,15.14-42.25-1-.31-4.27-3-4.27-3-3.4-1.89-4-1.13-4-4.77v-5.84Z"/><path class="cls-2" d="M32.26,135.35l-20-15.14C3.43,123.11.89,148,0,159.64H21Z"/><path class="cls-5" d="M44,127.45c-8.15-3-9.17-11.73-7.52-13-4.94,2.25-23.1,4.47-25.12,6.22,1.64,3.58,4.28,23.14,6.42,39H82.21c2.14-15.84,4.78-35.4,6.42-39-2-1.75-20.18-4-25.12-6.22,1.65,1.28.63,10-7.52,13h0l-6.43,21.87L44,127.45Z"/><path class="cls-6" d="M22.52,62.83c1.54,6.9-1.51,12.65-6.74,13.89S5.14,74.21,3.61,67.31s1.45-13.5,6.68-14.74S21,55.92,22.52,62.83Z"/><path class="cls-6" d="M79,62.83c-1.53,6.9,1.52,12.65,6.74,13.89s10.64-2.51,12.18-9.41-1.45-13.5-6.68-14.74S80.55,55.92,79,62.83Z"/><path class="cls-7" d="M50.77,2h-.12L45.2,1.75v.43l-.57,0c-11,.44-21.46,6.39-28.14,15.46s-7.57,20.51-7,31.46c1.35,28.14,17.11,59.73,41.31,60,24.19-.23,39.95-31.82,41.31-60,.52-11-.36-22.38-7-31.46S68,2.65,56.89,2.21l-.57,0V1.75L50.89,2Z"/><path class="cls-1" d="M68,12.86c-.33,1.55,0,9.83,9.5,22.53s10.27,13.8,10.27,13.8c2.71-4.71,1.7-7,4.39-1.06,0,0,2.45-10.64,0-20.58s-5.49-13.68-9.7-15.36S68,12.86,68,12.86Z"/><path class="cls-1" d="M14.86,39.69c-1.66,1.88-8-6.88-6.83,3.82S11.42,66.74,14.6,75C13.06,64.66,10.29,52.57,14.86,39.69Z"/><path class="cls-1" d="M90.16,50.18c.43-7.25,1.72-24.81-.1-29.33C84.8,7.81,75.16,2.53,59,.92c-5-.5,2.57,7.87,2.57,7.87C74.94,27.75,68.32,42.27,90.16,50.18Z"/><path class="cls-1" d="M72.13,16.81C34.85,22.25,39.9,54.28,10.25,49.6c-1.72-.27-3.73-9.26-3.73-9.26s3.22-14.87,9-23.41S27.82,6.18,34.31,3.51,58.1-1.13,61.05,2.63Z"/><polygon class="cls-8" points="42.5 122.46 47.18 124.22 46.14 135.83 39.97 128.45 42.5 122.46"/><polygon class="cls-9" points="31.49 114.5 35.8 110.09 47.18 124.22 36.3 133.78 31.49 114.5"/><polygon class="cls-8" points="57.6 122.27 52.93 124.03 53.68 135.31 60.14 128.26 57.6 122.27"/><polygon class="cls-9" points="68.61 114.3 64.3 109.89 52.93 124.03 63.81 133.59 68.61 114.3"/><path class="cls-5" d="M15.82,119.18a14.24,14.24,0,0,0-4.45,1.48c10,19-4.77,26.68.68,39H88c5.45-12.3-9.35-19.94.68-39a14.24,14.24,0,0,0-4.45-1.48C81.3,133.89,65,152.55,49.36,152.56S18.68,133.92,15.82,119.18Z"/><path class="cls-10" d="M33.67,68.13a3.2,3.2,0,1,0-3.2-3.2A3.2,3.2,0,0,0,33.67,68.13Z"/><path class="cls-10" d="M69.78,68.13a3.2,3.2,0,1,0-3.2-3.2A3.21,3.21,0,0,0,69.78,68.13Z"/><path class="cls-11" d="M63.14,86.85c-2,11-19.69,11-21.64,0C47.37,94.69,57.26,94.69,63.14,86.85Z"/><path class="cls-12" d="M45.09,81.15s0,0,0-.1a.63.63,0,0,1,.26-.46c1.31-2.53,3.9-9.92,5.09-18,1.3.08-1.29,13.82-2.4,17.1a24.28,24.28,0,0,1,4-.31c3.82,0,6.92.77,6.92,1.71s-3.1,1.71-6.92,1.71S45.29,82.05,45.09,81.15Z"/><path class="cls-1" d="M60.23,56.73c-1.9.78,1.25-4.36,10.58-4.56,10.86-.24,14.17,5,9.89,3.49C71.46,52.42,63.23,55.48,60.23,56.73Z"/><path class="cls-1" d="M43.22,56.73c1.9.78-1.25-4.36-10.58-4.56-10.86-.24-14.17,5-9.89,3.49C32,52.42,40.22,55.48,43.22,56.73Z"/><path class="cls-1" d="M86.5,40.13c1.66,1.88,8-6.88,6.82,3.82s-3.39,23.23-6.57,31.5C88.29,65.1,91.07,53,86.5,40.13Z"/></g></g></svg>