<svg xmlns="http://www.w3.org/2000/svg" viewBox="0 0 100 160.94"><defs><style>.cls-1{fill:#953d23;stroke:#231815;stroke-miterlimit:22.93;stroke-width:0.57px;}.cls-1,.cls-10,.cls-2,.cls-3,.cls-4,.cls-5,.cls-6,.cls-7,.cls-9{fill-rule:evenodd;}.cls-2{fill:#ceacca;}.cls-3{fill:#f6c085;}.cls-4{fill:#d8b3d2;}.cls-5{fill:#f8c997;}.cls-6{fill:#cc5827;}.cls-7,.cls-8{fill:#3e3b3a;}.cls-9{fill:#d6825b;}.cls-10{fill:#e5b17d;}</style></defs><title>Recurso 5</title><g id="Capa_2" data-name="Capa 2"><g id="OBJECTS"><path class="cls-1" d="M91.87,81.11c-.43,4.54-16.45,38.38-16.45,38.38l-38.3-.77S13.18,101.21,11.45,88.24a133.2,133.2,0,0,1-.75-25.09l80.67-2Z"/><path class="cls-2" d="M75.61,145.7c.87-.65,12.39-23.36,12.39-23.36,8.6,2.83,11.08,27.23,12,38.6H79.41Z"/><path class="cls-3" d="M50.76,106.25H41.69V112c0,6.78-18,7.4-24.15,9.36,1.65,14.16,14.79,24.55,34.12,37.76h4.68c7.88-11.7,27.67-18.85,28.13-37.76-6.2-2-24.65-2.5-24.64-9.36v-5.73Z"/><path class="cls-2" d="M27.05,143.11c-.87-.65-13-20.77-13-20.77-8.6,2.83-11.08,27.23-12,38.6H22.6Z"/><path class="cls-4" d="M17.54,121.34a13.66,13.66,0,0,0-4.35,1.44c9.82,18.64-4.68,26.12.66,38.16H88.16c5.34-12-9.16-19.52.66-38.16a13.66,13.66,0,0,0-4.35-1.44C82.06,133.71,68,143.21,51,143.21S20,133.71,17.54,121.34Z"/><path class="cls-5" d="M51.76,6.57h-.12l-5.33-.22v.43l-.56,0c-10.82.43-21,6.26-27.55,15.14S10.8,42,11.31,52.75c1.33,27.55,16.76,58.48,40.45,58.7,23.69-.22,39.12-31.15,40.44-58.7C92.72,42,91.85,30.84,85.31,22S68.58,7.24,57.75,6.81l-.55,0V6.36l-5.34.22Z"/><path class="cls-6" d="M80,57.13c1.85.77-1.23-4.26-10.36-4.46C59,52.43,55.77,57.55,60,56.08,69,52.91,77.06,55.91,80,57.13Z"/><path class="cls-7" d="M34.18,67a3.14,3.14,0,1,0-3.13-3.14A3.15,3.15,0,0,0,34.18,67Z"/><circle class="cls-8" cx="69.53" cy="63.9" r="3.13" transform="translate(-9.42 12.09) rotate(-9.31)"/><path class="cls-9" d="M39.41,89.31a25.06,25.06,0,0,0,24.11,0C61.62,101.5,41.47,101.12,39.41,89.31Z"/><path class="cls-10" d="M44.68,82.65s0,0,0-.09a.63.63,0,0,1,.26-.46,67.26,67.26,0,0,0,5-17.66c1.27.08-1.26,13.54-2.35,16.75a22.3,22.3,0,0,1,3.89-.31c3.75,0,6.79.75,6.79,1.68s-3,1.67-6.79,1.67S44.88,83.53,44.68,82.65Z"/><path class="cls-6" d="M23,57.21C21.11,58,24.19,53,33.32,52.75,44,52.52,47.2,57.63,43,56.16,34,53,25.91,56,23,57.21Z"/><path class="cls-6" d="M23,16.58c14.78,8.73,59.51,23.34,58.2,66.83,0,0,3.14-17.42,3.24-16.61s2.27,11.57-1,27.49S67,128.82,67.57,128,82,120.48,90.06,101.92C113.6,48,94.86-10.18,38.9,1.52,26.89,4,17.67,13.44,23,16.58Z"/><path class="cls-6" d="M39.41,21.86c-31,16.38-18.59,73-6.23,92,5.9,9.09,12,15,9.84,13.18S25.6,126.43,9.24,95.52C-3.92,70.67-8.27,8.26,32.57,8.26Z"/><path class="cls-6" d="M10.22,39.61C12,38.1,20.39,28.05,20.39,28.05c-8.11,34,6.86,62.59,6.8,62.48C14.66,69.06,12.87,64.11,10.22,39.61Z"/></g></g></svg>