<svg xmlns="http://www.w3.org/2000/svg" viewBox="0 0 100 163.02"><defs><style>.cls-1{fill:#9b5538;}.cls-1,.cls-10,.cls-11,.cls-2,.cls-3,.cls-4,.cls-5,.cls-6,.cls-7,.cls-8,.cls-9{fill-rule:evenodd;}.cls-2{fill:#f5b67e;}.cls-3{fill:#a95c40;}.cls-4{fill:#934d33;}.cls-5{fill:#f6c085;}.cls-6{fill:#f8c997;}.cls-7{fill:#bf9141;}.cls-8{fill:#3e3b3a;}.cls-9{fill:#d6825b;}.cls-10{fill:#e5b17d;}.cls-11{fill:#d97b5a;}</style></defs><title>Recurso 7</title><g id="Capa_2" data-name="Capa 2"><g id="OBJECTS"><path class="cls-1" d="M32.42,138.62c-.89-.67-20.72-10-20.72-10C2.88,131.53.9,151.35,0,163H21.09Z"/><path class="cls-1" d="M67.56,138.62c.89-.67,20.71-10,20.71-10C97.1,131.53,99.08,151.35,100,163H78.89Z"/><path class="cls-2" d="M50,106.89H40.68v5.88c0,3.65-.6,2.89-4,4.79a28.76,28.76,0,0,1-4.29,3C36.51,133.89,39.5,151,47.59,163h4.8c8.08-12,11.07-29.13,15.21-42.45a28.76,28.76,0,0,1-4.29-3c-3.41-1.9-4-1.14-4-4.79v-5.88Z"/><path class="cls-3" d="M36.67,117.6c-5,2.27-23.05,9.35-25.08,11.11,1.64,3.59,4.14,18.4,6.29,34.31H82.1c2.15-15.91,4.65-30.72,6.29-34.31-2-1.76-20.11-8.84-25.08-11.11,6.35,4.93-9.88,18.63-13.32,22.71l-6.88-7.63C42.59,131.31,30.67,122.26,36.67,117.6Z"/><polygon class="cls-4" points="48.49 139.63 49.99 140.37 51.49 139.63 51.49 163.02 48.49 163.02 48.49 139.63"/><path class="cls-5" d="M74.89,64.38c-1.33,6.94,3.16,12.71,10,14s13.52-2.51,14.85-9.45a12.55,12.55,0,0,0-10-14.8A12.87,12.87,0,0,0,74.89,64.38Z"/><path class="cls-5" d="M27,64.38c1.33,6.94-3.16,12.71-10,14S3.4,75.82,2.07,68.88a12.55,12.55,0,0,1,10-14.8A12.87,12.87,0,0,1,27,64.38Z"/><path class="cls-6" d="M85.21,20.37C78.5,11.26,68,5.27,56.93,4.83l-.58,0,0-.44-5.48.22-5.47-.22v.44l-.57,0c-11.11.44-21.57,6.43-28.28,15.54S9,41,9.5,52c1.36,28.27,3.89,59.94,41.51,60.25S90.93,80.05,92.28,52C92.81,41,91.92,29.49,85.21,20.37Z"/><path class="cls-7" d="M91.32,66.83c0-1.1,5.9-30.33,4.49-42.76S86.24,11,84.47,10.79A7.93,7.93,0,0,1,81.82,10S74.56,4.33,60,.74,25,8,13.77,1.87c-5.39,5.67-2.25,16.65-2.25,16.65S7.44,20,6.38,25.61s4.14,41.45,4.14,41.45,2.24-27.66,5.6-31.55c0,0,24,4.38,67.25-12C92.15,20.16,89.12,56.33,91.32,66.83Z"/><path class="cls-8" d="M29.87,71.58a3.22,3.22,0,1,0-3.22-3.22A3.22,3.22,0,0,0,29.87,71.58Z"/><path class="cls-8" d="M71.92,71.58a3.22,3.22,0,1,0-3.22-3.22A3.22,3.22,0,0,0,71.92,71.58Z"/><path class="cls-7" d="M19.65,58.39c-1-1.79,4.53-2.63,10.19-2.59,9.48.07,14.55,4.71,10,4.51C36.43,60.16,20,58.91,19.65,58.39Z"/><path class="cls-7" d="M82.13,58.79C83.21,57,77.65,56.08,72,56c-9.48-.12-14.65,4.41-10.09,4.3C65.32,60.23,81.81,59.31,82.13,58.79Z"/><path class="cls-9" d="M63.1,90.28c-2,11-19.78,11-21.74,0C47.26,98.16,57.2,98.16,63.1,90.28Z"/><path class="cls-10" d="M45,84.55s0,0,0-.1a.63.63,0,0,1,.26-.46c1.32-2.55,3.92-10,5.11-18.13,1.31.08-1.29,13.89-2.41,17.19a23.56,23.56,0,0,1,4-.31c3.84,0,7,.77,7,1.71s-3.12,1.72-7,1.72S45.17,85.46,45,84.55Z"/><path class="cls-11" d="M32.27,128.57C39.56,137.82,50.4,141,50,140.31s-10.67-14.73-11.45-18.62a6.57,6.57,0,0,1,1.59-6c.8-1,.55-3,.55-4.43C29.92,110.94,25,119.32,32.27,128.57Z"/><path class="cls-11" d="M67.71,128.57C60.42,137.82,49.58,141,50,140.31s10.67-14.73,11.45-18.62a6.57,6.57,0,0,0-1.59-6c-.8-1-.55-3-.55-4.43C70.06,110.94,75,119.32,67.71,128.57Z"/></g></g></svg>