<svg xmlns="http://www.w3.org/2000/svg" viewBox="0 0 100 162.61"><defs><style>.cls-1,.cls-7{fill:#3e3b3a;}.cls-2{fill:#487d72;}.cls-10,.cls-2,.cls-3,.cls-4,.cls-5,.cls-6,.cls-7,.cls-8,.cls-9{fill-rule:evenodd;}.cls-3{fill:#f5b67e;}.cls-4{fill:#448a7c;}.cls-5{fill:#f6c085;}.cls-6{fill:#f8c997;}.cls-8{fill:#e5b17d;}.cls-9{fill:#5a5858;}.cls-10{fill:#d6825b;}</style></defs><title>Recurso 2</title><g id="Capa_2" data-name="Capa 2"><g id="OBJECTS"><ellipse class="cls-1" cx="50.97" cy="110.17" rx="21.96" ry="31.77"/><path class="cls-2" d="M67.74,138.32l20.05-15.14c8.78,2.9,11.32,27.81,12.21,39.43H79Z"/><path class="cls-3" d="M49.75,106.75H40.49v5.85c0,3.07-14,7-16.9,8-8.69,15.12,16.61,23.91,24.65,35.86H53c8-12,30.7-20.07,23.39-35.86-2.91-.93-17.4-4.9-17.4-8v-5.85Z"/><path class="cls-2" d="M30.21,140.19c-.89-.67-18-17-18-17C3.43,126.08.89,151,0,162.61H21Z"/><path class="cls-4" d="M23.59,120.57c-2.81.55-5.57,1.08-7.77,1.59l-.11,0-.1,0-.11,0-.1,0-.1,0-.1,0-.2,0-.1,0-.09,0-.1,0h0l-.09,0-.1,0-.09,0-.09,0-.09,0-.09,0-.24.06h0l-.09,0-.08,0-.08,0-.09,0-.08,0-.08,0-.06,0h0l-.07,0-.08,0-.07,0h0l-.08,0-.14,0-.05,0h0l-.2.06,0,0h0l-.13,0-.06,0,0,0-.16.06,0,0-.17.07h0l-.16.07h0l-.13.07h0l-.11.08h0l-.11.08c.89,1.93,2.07,8.55,3.3,16.72-1.25,8.34-6.13,14.33-2.62,22.25H88c3.51-7.92-1.37-13.91-2.62-22.25,1.23-8.17,2.41-14.79,3.3-16.72l-.11-.08h0l-.11-.08h0l-.13-.07h0l-.16-.07h0l-.17-.07,0,0-.16-.06,0,0-.06,0-.13,0h0l0,0-.2-.06h0l0,0-.14,0-.08,0h0l-.07,0-.08,0-.08,0h0l-.06,0-.08,0-.08,0-.09,0-.08,0-.08,0-.09,0h0l-.24-.06-.09,0-.09,0-.09,0-.09,0-.1,0-.09,0h0l-.1,0-.09,0-.1,0-.2,0-.1,0-.1,0-.1,0-.11,0-.1,0-.11,0c-2.2-.51-5-1-7.77-1.59a15,15,0,0,1,.42,3.49c0,10.85-12,19.65-26.83,19.65s-26.83-8.8-26.83-19.65A15,15,0,0,1,23.59,120.57Z"/><path class="cls-5" d="M22.52,63.45c1.54,6.9-1.51,12.65-6.74,13.88s-10.64-2.5-12.17-9.4,1.45-13.5,6.68-14.74S21,56.54,22.52,63.45Z"/><path class="cls-5" d="M79,63.45c-1.53,6.9,1.52,12.65,6.74,13.88s10.64-2.5,12.18-9.4-1.45-13.5-6.68-14.74S80.55,56.54,79,63.45Z"/><path class="cls-6" d="M50.77,4.94h-.12L45.2,4.73v.43l-.57,0c-11,.44-21.46,6.4-28.14,15.47s-7.57,20.51-7,31.46c1.35,28.13,17.11,59.72,41.31,60,24.19-.24,39.95-31.83,41.31-60,.52-11-.36-22.39-7-31.46S68,5.62,56.89,5.18l-.57,0V4.73l-5.44.21Z"/><path class="cls-7" d="M68,15.84c-.33,1.54,0,9.83,9.5,22.52s10.27,13.8,10.27,13.8,0,22,1.25,19.32,3.76-19.32,3.81-20.33,1.78-10.69-.65-20.63-5.49-13.68-9.7-15.35S68,15.84,68,15.84Z"/><path class="cls-7" d="M14.86,42.67c-1.66,1.87-7,6.36-7,6.36,1.58,7.55,3,21.5,4.75,22.64C13.37,69.62,14.08,55.85,14.86,42.67Z"/><path class="cls-7" d="M87.73,52.16c.43-7.25,4.15-23.81,2.33-28.33C84.8,10.79,75.16,5.51,59,3.89a49.89,49.89,0,0,0-9.11-.05C59.16,19.15,67,39.5,87.73,52.16Z"/><path class="cls-7" d="M72.13,19.78C68.85,40.24,25.69,33.64,11.49,58.25c-15.82-23.93,8.41-72.93,50.58-54Z"/><path class="cls-7" d="M29.85,68.77a3.21,3.21,0,1,0-3.21-3.21A3.21,3.21,0,0,0,29.85,68.77Z"/><circle class="cls-1" cx="71.69" cy="65.56" r="3.2"/><path class="cls-8" d="M44.15,81.79s0-.05,0-.1a.65.65,0,0,1,.26-.47c1.32-2.53,3.91-9.91,5.09-18,1.3.08-1.29,13.83-2.4,17.11a23.4,23.4,0,0,1,4-.31c3.83,0,6.93.76,6.93,1.71s-3.1,1.71-6.93,1.71S44.36,82.69,44.15,81.79Z"/><path class="cls-7" d="M60.15,53.47c-1.9.78,1.25-4.36,10.58-4.56,10.87-.24,14.17,5,9.89,3.49C71.38,49.16,63.16,52.22,60.15,53.47Z"/><path class="cls-7" d="M41.38,53.47c1.9.78-1.25-4.36-10.58-4.56-10.86-.24-14.17,5-9.89,3.49C30.15,49.16,38.38,52.22,41.38,53.47Z"/><path class="cls-9" d="M80,55.61c4.55.48,6.22,2.49,6,7.17-.46,9.36-3.51,14.45-13,15.8C64.18,79.83,59,76,57.26,66.69c-.57-3.1-.34-6.74,2.64-8.5C64.74,55.33,74.23,55,80,55.61Zm-58.35,0h0c-4.55.48-6.22,2.49-6,7.17.46,9.36,3.52,14.45,13,15.8,8.82,1.25,14-2.56,15.74-11.89.57-3.1.34-6.74-2.64-8.5C36.88,55.33,27.4,55,21.64,55.61ZM47,59h0a1.46,1.46,0,0,1-1.22-.8A5.53,5.53,0,0,0,43.55,56c-4.26-2.45-16.66-2.8-21.51-2.8,0,0-4.36.08-6.47.17A26.17,26.17,0,0,0,10.8,54a1,1,0,0,0-.42,1c0,1.44.1,2.89.27,4.33a.69.69,0,0,0,.37.58,3.11,3.11,0,0,1,1.62,2.42c.83,4.29,2,8.67,4.46,12.34a11.09,11.09,0,0,0,5,4c5.36,2.3,13.43,2.73,18.32-1.12,2.4-1.89,4.3-6.11,5.23-8.91a46.55,46.55,0,0,0,1.37-4.88,7.67,7.67,0,0,0,.16-1.07c.06-.51.24-.7.76-.67a38.46,38.46,0,0,0,5.68,0c.53,0,.71.16.76.67a9.53,9.53,0,0,0,.17,1.07A46.55,46.55,0,0,0,56,68.58c.93,2.8,2.83,7,5.22,8.91,4.9,3.85,13,3.42,18.33,1.12a11.09,11.09,0,0,0,5-4C87,71,88.16,66.57,89,62.28a3.11,3.11,0,0,1,1.62-2.42.71.71,0,0,0,.37-.58c.17-1.44.22-2.89.27-4.33a1,1,0,0,0-.42-1,26.17,26.17,0,0,0-4.78-.62c-2.1-.09-6.46-.17-6.46-.17-4.85,0-17.25.35-21.51,2.8a5.53,5.53,0,0,0-2.26,2.21,1.46,1.46,0,0,1-1.22.8A23.45,23.45,0,0,1,47,59Z"/><path class="cls-10" d="M64.45,89.1c-2.94,3.77-8.34,6.29-14.52,6.29S38.35,92.87,35.41,89.1C39,91.69,44,94.31,49.76,94.31S60.87,91.69,64.45,89.1Z"/></g></g></svg>