<svg xmlns="http://www.w3.org/2000/svg" viewBox="0 0 100 156.84"><defs><style>.cls-1{fill:#e7a123;}.cls-1,.cls-10,.cls-11,.cls-2,.cls-3,.cls-4,.cls-5,.cls-6,.cls-7,.cls-8,.cls-9{fill-rule:evenodd;}.cls-2{fill:#f5b67e;}.cls-3{fill:#f3ab1c;}.cls-4{fill:#f6c085;}.cls-5{fill:#f8c997;}.cls-6{fill:#d6825b;}.cls-7{fill:#a74125;}.cls-8{fill:#ed8322;}.cls-9{fill:#3e3b3a;}.cls-10{fill:#ed7f22;}.cls-11{fill:#e5b17d;}</style></defs><title>Recurso 1</title><g id="Capa_2" data-name="Capa 2"><g id="OBJECTS"><path class="cls-1" d="M36.1,133.76c-.84-.63-19.58-9.45-19.58-9.45C8.17,127.06,6.3,145.8,5.45,156.84H25.39Z"/><path class="cls-1" d="M69.33,133.76c.84-.63,19.58-9.45,19.58-9.45,8.35,2.75,10.22,21.49,11.07,32.53H80Z"/><path class="cls-2" d="M52.71,103.77h-8.8v5.55c0,3.46-.57,2.74-3.79,4.53a27.47,27.47,0,0,1-4.06,2.86c3.91,12.58,6.74,28.77,14.38,40.13H55c7.65-11.36,10.48-27.55,14.39-40.13a27.47,27.47,0,0,1-4.06-2.86c-3.23-1.79-3.8-1.07-3.8-4.53v-5.55Z"/><path class="cls-3" d="M40.12,113.9c-4.69,2.14-21.8,8.84-23.71,10.5,1.55,3.4,3.91,17.39,5.95,32.44H83.07c2-15.05,4.4-29,6-32.44-1.91-1.66-19-8.36-23.71-10.5C68.26,132.71,36.64,130.4,40.12,113.9Z"/><path class="cls-4" d="M76.26,62.46c-1.26,6.55,3,12,9.48,13.19s12.78-2.38,14-8.94a11.87,11.87,0,0,0-9.48-14A12.17,12.17,0,0,0,76.26,62.46Z"/><path class="cls-4" d="M30.93,62.46c1.26,6.55-3,12-9.48,13.19s-12.78-2.38-14-8.94a11.87,11.87,0,0,1,9.48-14A12.17,12.17,0,0,1,30.93,62.46Z"/><path class="cls-5" d="M86,22C79.67,13.34,69.78,7.68,59.28,7.27l-.55,0V6.83L53.57,7,48.4,6.83v.42l-.55,0C37.36,7.68,27.47,13.34,21.13,22s-7.19,19.49-6.69,29.89c1.28,26.73,3.67,56.67,39.24,57s37.74-30.43,39-57C93.2,41.45,92.36,30.59,86,22Z"/><path class="cls-6" d="M61,81.87a8.09,8.09,0,0,1,.2,1.78,7.88,7.88,0,1,1-15.75,0,8.09,8.09,0,0,1,.19-1.78Z"/><path class="cls-7" d="M16.4,59.94c.47-9.85.59-27.67,9.22-27.67.22,0,26.2-10.77,56.12-10.77,6.89,0,8.6,19.57,8.73,32.44,0,2.65.21,5.3.36,8,.09,1.55.21,3.11.28,4.66,0,.63.2,2.32,1,2.16s1-3.59,1.11-4.32a122.79,122.79,0,0,0,.83-15.57c0-7.06-.19-18-6.33-28.35-2.17-3.64-3.6-8-8.06-11-10.53-7-31.77-4-43.89,0-8.44,2.78-17.06,6.24-20.07,14.67C12.42,33.39,12.5,40.63,13.59,59c.12,2,.35,4,.63,5.95a35.2,35.2,0,0,0,.66,3.94c.69,2.8,1.65.8,1.62-.94C16.45,65.24,16.27,62.61,16.4,59.94Z"/><path class="cls-7" d="M84.24,12.88C83.09-13.48,32,8.59,25.47,9.78,9.22,12.75,2.6,2.29,2.6,2.29-7.83,32,13.47,56.91,60.54,25.73c8.64-5.73,18.92-2,18.92-2,8.37,10.92,12,12.72,13.67,27.74,0,0,1.25-10.47,3.43-21.37C98.84,18.72,93.7,11.59,84.24,12.88Z"/><path class="cls-7" d="M14.88,68.85c0,1.15,4.69,23.4,7.91,27.59s14.13,10.49,16,10.91c1.44.33,11,1.9,15,2.55,4-.65,13.52-2.22,15-2.55,1.83-.42,13-7.24,16-10.91s9.43-30.63,7.7-28.9c-6.5,13-7.49,31.73-33.7,31.73-1.3,0-3.88-2-4.92-2.87-1,.86-3.62,2.87-4.92,2.87C22.58,99.27,21.38,81.85,14.88,68.85Z"/><path class="cls-7" d="M30.47,84.33c7.3,4.06,21.64,1,23.05-1.77,1.41,2.78,15.75,5.83,23,1.77-11.48-2.28-17.32-7.53-23-5.75C47.79,76.8,42,82.05,30.47,84.33Z"/><path class="cls-8" d="M26.42,119.77c.21.73,1.53,37.07,1.53,37.07h7.29l-2.65-39.75Z"/><path class="cls-8" d="M79.29,119.77c-.21.73-1.53,37.07-1.53,37.07h-7.3l2.66-39.75Z"/><path class="cls-9" d="M33.69,67.86a3,3,0,1,0-3-3A3,3,0,0,0,33.69,67.86Z"/><path class="cls-9" d="M73.45,67.86a3,3,0,1,0-3-3A3,3,0,0,0,73.45,67.86Z"/><path class="cls-10" d="M24,55.49c-1-1.68,4.29-2.48,9.63-2.44,9,.07,13.76,4.45,9.45,4.26C39.89,57.17,24.32,56,24,55.49Z"/><path class="cls-10" d="M83.1,55.88c1-1.67-4.23-2.57-9.58-2.63-9-.12-13.84,4.17-9.53,4.07C67.21,57.24,82.81,56.36,83.1,55.88Z"/><path class="cls-11" d="M47.05,76.5s0,0,0-.09a.58.58,0,0,1,.25-.45c1.25-2.4,3.7-9.42,4.83-17.14,1.23.08-1.22,13.14-2.28,16.26a22.11,22.11,0,0,1,3.78-.3c3.64,0,6.58.73,6.58,1.63S57.26,78,53.62,78,47.24,77.35,47.05,76.5Z"/></g></g></svg>