<svg xmlns="http://www.w3.org/2000/svg" viewBox="0 0 100 160.85"><defs><style>.cls-1{fill:#402412;}.cls-1,.cls-2,.cls-3,.cls-4,.cls-5,.cls-6,.cls-7,.cls-8,.cls-9{fill-rule:evenodd;}.cls-2{fill:#9b5538;}.cls-3{fill:#f5b67e;}.cls-4{fill:#ed8322;}.cls-5{fill:#f6c085;}.cls-6{fill:#f8c997;}.cls-7{fill:#3e3b3a;}.cls-8{fill:#e5b17d;}.cls-9{fill:#d6825b;}</style></defs><title>Recurso 4</title><g id="Capa_2" data-name="Capa 2"><g id="OBJECTS"><path class="cls-1" d="M94.77,84.6c0,12.59,8.85,22.77,3.52,36.49-8.31,21.39-27,16.7-40.91,16.7H39.21c-14.25,0-31.09,1.72-37.11-18.9-4.15-14.21,3.24-21.7,3.24-33L4.7,53.79C5.79,11.31,21.09,4.67,50.13,4.67,84.3.09,93.55,18,95.57,53.79Z"/><path class="cls-2" d="M67,136.83l19.84-15c8.69,2.86,11.19,27.51,12.08,39H78.16Z"/><path class="cls-3" d="M49.21,105.59H40.05v5.79c0,3.59-.6,2.85-3.95,4.71,0,0-3.24,2.66-4.23,3,4.07,13.11,7,30,15,41.79h4.72c8-11.82,10.91-28.68,15-41.79-1-.31-4.23-3-4.23-3-3.36-1.86-4-1.12-4-4.71v-5.79Z"/><path class="cls-2" d="M31.91,136.83l-19.83-15C3.39,124.71.88,149.36,0,160.85H20.76Z"/><path class="cls-4" d="M43.53,129c-8.06-3-9.07-11.6-7.44-12.87-3.59,1.64-14.26,3.26-20.45,4.7l-.1,0-.1,0-.1,0-.11,0-.1,0L15,121l-.2,0-.1,0-.09,0-.1,0h0l-.09,0-.09,0-.09,0-.1,0-.09,0-.08,0-.24.06h0l-.09,0-.08,0-.08,0-.08,0-.08,0-.08,0-.07,0h0l-.08,0-.07,0-.07,0h0l-.08,0-.14,0-.05,0h0l-.2.07h-.06l-.12,0-.06,0-.06,0-.15.06,0,0-.17.07h0l-.16.08h0l-.13.07h0l-.12.07h0a.39.39,0,0,0-.1.08c.88,1.91,2,8.46,3.26,16.54-1.23,8.25-6.06,14.18-2.59,22H87c3.48-7.83-1.35-13.76-2.59-22,1.22-8.08,2.39-14.63,3.27-16.54l-.1-.08h0l-.11-.07h0l-.13-.07h0l-.16-.08h0l-.17-.07,0,0-.15-.06,0,0-.06,0-.12,0h-.07l-.2-.07h0l-.06,0-.14,0-.07,0h0l-.07,0-.08,0-.07,0h0l-.06,0-.08,0-.08,0-.08,0-.08,0-.09,0-.08,0h0l-.24-.06-.09,0-.09,0-.09,0-.09,0-.09,0-.09,0h0l-.09,0-.1,0-.09,0-.2,0-.1,0-.1,0-.1,0-.1,0-.1,0-.11,0c-6.18-1.44-16.85-3.06-20.45-4.7,1.64,1.27.63,9.91-7.44,12.87h0l-5.67,9.49-.25-.42-.25.42L43.53,129Z"/><path class="cls-5" d="M22.28,60.43c1.52,6.83-1.5,12.51-6.67,13.74s-10.52-2.48-12-9.31S5,51.51,10.18,50.29,20.76,53.6,22.28,60.43Z"/><path class="cls-5" d="M78.16,60.43c-1.52,6.83,1.5,12.51,6.67,13.74s10.52-2.48,12-9.31-1.44-13.35-6.61-14.57S79.67,53.6,78.16,60.43Z"/><path class="cls-6" d="M50.22,4.88H50.1l-5.39-.22V5.1l-.56,0c-10.94.44-21.23,6.33-27.84,15.3s-7.48,20.29-7,31.12c1.34,27.83,16.92,59.08,40.86,59.31,23.93-.23,39.52-31.48,40.86-59.31.52-10.83-.36-22.14-7-31.12S67.21,5.56,56.28,5.12l-.57,0V4.67l-5.38.22Z"/><path class="cls-1" d="M67.23,15.67c-.33,1.53,0,9.72,9.39,22.28S86.78,51.6,86.78,51.6s.43,21.19,1.63,18.67,2.92-20.75,2.92-20.75a46.66,46.66,0,0,0-.18-19.33c-2.41-9.83-5.44-13.53-9.6-15.19S67.23,15.67,67.23,15.67Z"/><path class="cls-1" d="M14.69,42.21c-1.63,1.85-7,2-7,2C8,46,10.26,71.84,12.41,70Z"/><path class="cls-1" d="M86.78,51.6c.43-7.18,4.11-23.56,2.3-28C83.88,10.67,74.35,5.45,58.35,3.85a48.82,48.82,0,0,0-9-.05C58.52,19,66.27,39.07,86.78,51.6Z"/><path class="cls-1" d="M71.35,19.57c-3.24,20.23-45.94,13.71-60,38.05C-4.28,34,19.68-14.53,61.4,4.21Z"/><path class="cls-7" d="M31.42,69a3.17,3.17,0,1,0-3.17-3.17A3.17,3.17,0,0,0,31.42,69Z"/><path class="cls-7" d="M70.91,69a3.17,3.17,0,1,0-3.16-3.17A3.17,3.17,0,0,0,70.91,69Z"/><path class="cls-8" d="M45.1,82s0,0,0-.1a.63.63,0,0,1,.26-.46c1.3-2.5,3.86-9.81,5-17.84,1.29.08-1.27,13.67-2.37,16.92a22.78,22.78,0,0,1,3.93-.31c3.79,0,6.86.76,6.86,1.69s-3.07,1.7-6.86,1.7S45.3,82.87,45.1,82Z"/><path class="cls-1" d="M59.57,58.19c-1.87.78,1.25-4.3,10.47-4.5,10.75-.24,14,4.93,9.78,3.45C70.69,53.94,62.55,57,59.57,58.19Z"/><path class="cls-1" d="M40.86,58.19c1.88.78-1.24-4.3-10.46-4.5-10.75-.24-14,4.93-9.79,3.45C29.75,53.94,37.89,57,40.86,58.19Z"/><path class="cls-9" d="M61,89.73c-1.94,8.55-19.48,8.55-21.41,0A14.81,14.81,0,0,0,61,89.73Z"/></g></g></svg>