<svg xmlns="http://www.w3.org/2000/svg" viewBox="0 0 100 164.23"><defs><style>.cls-1{fill:#d33f27;}.cls-1,.cls-2,.cls-3,.cls-4,.cls-5,.cls-6,.cls-7,.cls-8,.cls-9{fill-rule:evenodd;}.cls-2{fill:#f5b67e;}.cls-3{fill:#e43f25;}.cls-4{fill:#f6c085;}.cls-5{fill:#f8c997;}.cls-6{fill:#ed7f22;}.cls-7{fill:#3e3b3a;}.cls-8{fill:#d6825b;}.cls-9{fill:#e5b17d;}</style></defs><title>Recurso 8</title><g id="Capa_2" data-name="Capa 2"><g id="OBJECTS"><path class="cls-1" d="M32.42,139.83c-.89-.67-20.72-10-20.72-10C2.88,132.74.9,152.56,0,164.23H21.09Z"/><path class="cls-1" d="M67.56,139.83c.89-.67,20.71-10,20.71-10,8.83,2.91,10.81,22.73,11.71,34.4H78.89Z"/><path class="cls-2" d="M50,108.1H40.68V114c0,3.65-.6,2.89-4,4.79,0,0-13.61,11.35-14.61,11.67,4.14,13.31,14,15.68,22.09,27.69l5.62,1.78,5.95-.89C63.8,147,76,147,80.14,133.68c-1-.32-16.83-14.91-16.83-14.91-3.41-1.9-4-1.14-4-4.79V108.1Z"/><path class="cls-3" d="M36.66,118.82c-5,2.26-23,9.34-25.07,11.1,1.64,3.6,4.14,18.4,6.29,34.31H82.1c2.15-15.91,4.65-30.71,6.29-34.31-2-1.76-20.12-8.84-25.08-11.1,2.88,13.66,0,26.51-13,26.56S34.15,130.72,36.66,118.82Z"/><path class="cls-4" d="M74.89,65.59c-1.33,6.94,3.16,12.71,10,14S98.44,77,99.77,70.1a12.55,12.55,0,0,0-10-14.81A12.87,12.87,0,0,0,74.89,65.59Z"/><path class="cls-4" d="M27,65.59c1.33,6.94-3.16,12.71-10,14S3.4,77,2.07,70.1a12.55,12.55,0,0,1,10-14.81A12.87,12.87,0,0,1,27,65.59Z"/><path class="cls-5" d="M85.21,21.58C78.5,12.47,68,6.48,56.93,6l-.58,0,0-.44-5.48.22-5.47-.22V6l-.57,0c-11.11.44-21.57,6.43-28.28,15.54S9,42.19,9.5,53.19c1.36,28.28,3.89,59.94,41.51,60.25S90.93,81.26,92.28,53.19C92.81,42.19,91.92,30.7,85.21,21.58Z"/><path class="cls-6" d="M11.58,61.75c.5-10.42.63-29.26,9.75-29.26,6.76,0,18.59,4.18,29.48,4.74C61.06,36.57,73.89,32,80.69,32c7.29,0,9.09,9.82,9.23,23.43,0,2.81.23,5.61.39,8.41.09,1.65.21,3.29.29,4.93,0,.67.21,2.45,1.07,2.28s1.08-3.8,1.18-4.57A129.39,129.39,0,0,0,93.72,50c0-7.47-.19-19-6.69-30-2.29-3.85-3.8-8.5-8.52-11.65C67.38.9,44.35.16,31.53,4.38,22.61,7.32,14.05,15,10.86,23.88c-3.49,9.79-3.4,17.44-2.25,36.83.13,2.1.37,4.21.66,6.29a41.69,41.69,0,0,0,.7,4.17c.73,3,1.75.85,1.72-1C11.64,67.36,11.44,64.57,11.58,61.75Z"/><path class="cls-6" d="M8.5,56.59C7.26,43.44,4.71,9.16,14.57,4.07,18.77,1.91,40.68-.21,51,0h0C61.37-.21,83.29,1.91,87.48,4.07c9.86,5.09,7.31,39.37,6.08,52.52,0,0-5.1-20.84-10.75-29.28S54.53,23.1,51.09,24.65l-.06,0h0l-.06,0c-3.45-1.55-26.07-5.77-31.73,2.66S8.5,56.59,8.5,56.59Z"/><path class="cls-7" d="M29.87,68.89a3.22,3.22,0,1,0-3.22-3.22A3.22,3.22,0,0,0,29.87,68.89Z"/><path class="cls-7" d="M71.92,68.89a3.22,3.22,0,1,0-3.22-3.22A3.22,3.22,0,0,0,71.92,68.89Z"/><path class="cls-8" d="M36.46,88.09c5,3.62,10.13,5.35,15.25,5.19,5.11.16,10.23-1.57,15.24-5.19C71,105.27,32.44,105.27,36.46,88.09Z"/><path class="cls-9" d="M43.91,84.81s0,0,0-.1a.65.65,0,0,1,.26-.47c1.32-2.54,3.92-10,5.11-18.13C50.58,66.19,48,80,46.86,83.3a23.56,23.56,0,0,1,4-.31c3.84,0,7,.77,7,1.72s-3.12,1.72-7,1.72S44.11,85.71,43.91,84.81Z"/><path class="cls-6" d="M20.08,55.7c-1-1.79,4.54-2.63,10.19-2.59,9.48.07,14.55,4.71,10,4.51C36.86,57.47,20.39,56.22,20.08,55.7Z"/><path class="cls-6" d="M82.56,55.58c1.08-1.76-4.48-2.71-10.13-2.78-9.48-.12-14.65,4.41-10.09,4.3C65.75,57,82.25,56.1,82.56,55.58Z"/></g></g></svg>